<?xml version="1.0" encoding="UTF-8" standalone="no"?>


<svg
   width="2591.3857"
   height="577.95276"
   viewBox="0 0 685.6375 152.91666"
   version="1.1"
   id="svg1267"
   inkscape:version="1.1.2 (0a00cf5339, 2022-02-04)"
   sodipodi:docname="big_tech.svg"
   xmlns:inkscape="http://www.inkscape.org/namespaces/inkscape"
   xmlns:sodipodi="http://sodipodi.sourceforge.net/DTD/sodipodi-0.dtd"
   xmlns="http://www.w3.org/2000/svg"
   xmlns:svg="http://www.w3.org/2000/svg">
  <sodipodi:namedview
     id="namedview1269"
     pagecolor="#ffffff"
     bordercolor="#666666"
     borderopacity="1.0"
     inkscape:pageshadow="2"
     inkscape:pageopacity="0.0"
     inkscape:pagecheckerboard="0"
     inkscape:document-units="mm"
     showgrid="false"
     fit-margin-top="100"
     fit-margin-left="100"
     fit-margin-right="100"
     fit-margin-bottom="100"
     lock-margins="true"
     units="px"
     inkscape:zoom="0.15092181"
     inkscape:cx="944.19751"
     inkscape:cy="205.40437"
     inkscape:window-width="1836"
     inkscape:window-height="962"
     inkscape:window-x="40"
     inkscape:window-y="74"
     inkscape:window-maximized="1"
     inkscape:current-layer="layer1" />
  <defs
     id="defs1264">
    <linearGradient
       id="Grad_Logo1"
       x1="61"
       y1="117"
       x2="259"
       y2="127"
       gradientUnits="userSpaceOnUse"
       gradientTransform="matrix(0.26458333,0,0,0.26458333,43.340886,94.000009)">
      <stop
         style="stop-color:#0064e1"
         offset="0"
         id="stop972" />
      <stop
         style="stop-color:#0064e1"
         offset="0.4"
         id="stop974" />
      <stop
         style="stop-color:#0073ee"
         offset="0.83"
         id="stop976" />
      <stop
         style="stop-color:#0082fb"
         offset="1"
         id="stop978" />
    </linearGradient>
    <linearGradient
       id="Grad_Logo2"
       x1="45"
       y1="139"
       x2="45"
       y2="66"
       gradientUnits="userSpaceOnUse"
       gradientTransform="matrix(0.26458333,0,0,0.26458333,43.340886,94.000009)">
      <stop
         style="stop-color:#0082fb"
         offset="0"
         id="stop981" />
      <stop
         style="stop-color:#0064e0"
         offset="1"
         id="stop983" />
    </linearGradient>
  </defs>
  <g
     inkscape:label="Layer 1"
     inkscape:groupmode="layer"
     id="layer1"
     transform="translate(-21.847526,2.4684753)">
    <g
       id="g1536"
       transform="matrix(1.9788101,0,0,1.9788101,318.24948,-162.01831)">
      <path
         id="Logo0"
         style="fill:#0081fb;stroke-width:0.264583"
         d="m 51.558844,127.32693 c 0,2.90512 0.637646,5.13556 1.471084,6.48493 1.092729,1.76742 2.722562,2.51619 4.384145,2.51619 2.143125,0 4.103688,-0.53181 7.881938,-5.75733 3.026833,-4.18836 6.593416,-10.0674 8.993187,-13.75304 l 4.064,-6.24417 c 2.823104,-4.33652 6.090708,-9.15723 9.837208,-12.424834 3.058584,-2.667 6.357938,-4.148667 9.678458,-4.148667 5.574776,0 10.884956,3.230562 14.948956,9.289521 4.44765,6.63575 6.60665,14.99394 6.60665,23.61935 0,5.12763 -1.01071,8.8953 -2.7305,11.87186 -1.66158,2.87866 -4.90008,5.75469 -10.34786,5.75469 v -8.20738 c 4.66461,0 5.82878,-4.28625 5.82878,-9.19162 0,-6.9903 -1.62984,-14.74788 -5.22023,-20.2909 -2.54794,-3.93171 -5.84994,-6.33413 -9.482671,-6.33413 -3.929062,0 -7.090833,2.96334 -10.644187,8.24707 -1.889125,2.80723 -3.828521,6.22829 -6.006041,10.08856 l -2.397125,4.24656 c -4.815417,8.53811 -6.035146,10.48279 -8.442855,13.69219 -4.220104,5.61975 -7.823729,7.74965 -12.567708,7.74965 -5.627687,0 -9.186333,-2.43682 -11.390312,-6.10923 -1.799167,-2.99244 -2.682875,-6.91886 -2.682875,-11.39296 z" />
      <path
         id="Logo1"
         style="fill:url(#Grad_Logo1);stroke-width:0.264583"
         d="m 49.820532,103.86897 c 3.767666,-5.807607 9.204854,-9.868961 15.441083,-9.868961 3.611562,0 7.201958,1.068917 10.951104,4.130146 4.101042,3.346975 8.471958,8.858245 13.925021,17.941395 l 1.95527,3.25967 c 4.720167,7.86341 7.405688,11.90889 8.97731,13.81654 2.02142,2.45004 3.43694,3.18029 5.27579,3.18029 4.66461,0 5.82878,-4.28625 5.82878,-9.19162 l 7.24958,-0.22755 c 0,5.12763 -1.01071,8.8953 -2.7305,11.87186 -1.66158,2.87866 -4.90008,5.75469 -10.34786,5.75469 -3.38666,0 -6.387037,-0.73555 -9.704912,-3.86557 -2.550583,-2.40241 -5.532438,-6.67014 -7.826375,-10.5066 l -6.823604,-11.39825 c -3.423708,-5.72029 -6.564313,-9.98538 -8.382,-11.91683 -1.955271,-2.07698 -4.468812,-4.58523 -8.479896,-4.58523 -3.246437,0 -6.003396,2.27806 -8.310562,5.76262 z" />
      <path
         id="Logo2"
         style="fill:url(#Grad_Logo2);stroke-width:0.264583"
         d="m 65.129323,102.26295 c -3.246437,0 -6.003396,2.27806 -8.310562,5.76262 -3.262313,4.9239 -5.259917,12.25815 -5.259917,19.30136 0,2.90512 0.637646,5.13556 1.471084,6.48493 l -7.006167,4.61434 c -1.799167,-2.99244 -2.682875,-6.91886 -2.682875,-11.39296 0,-8.13594 2.233083,-16.61584 6.479646,-23.16427 3.767666,-5.807607 9.204854,-9.868961 15.441083,-9.868961 z" />
    </g>
    <g
       fill="none"
       fill-rule="evenodd"
       id="g1491"
       transform="matrix(0.3922107,0,0,0.3922107,170.87916,23.818078)">
      <path
         d="m 221.503,210.324 c -105.235,50.083 -170.545,8.18 -212.352,-17.271 -2.587,-1.604 -6.984,0.375 -3.169,4.757 13.928,16.888 59.573,57.593 119.153,57.593 59.621,0 95.09,-32.532 99.527,-38.207 4.407,-5.627 1.294,-8.731 -3.16,-6.872 z m 29.555,-16.322 c -2.826,-3.68 -17.184,-4.366 -26.22,-3.256 -9.05,1.078 -22.634,6.609 -21.453,9.93 0.606,1.244 1.843,0.686 8.06,0.127 6.234,-0.622 23.698,-2.826 27.337,1.931 3.656,4.79 -5.57,27.608 -7.255,31.288 -1.628,3.68 0.622,4.629 3.68,2.178 3.016,-2.45 8.476,-8.795 12.14,-17.774 3.639,-9.028 5.858,-21.622 3.71,-24.424 z"
         fill="#ff9900"
         fill-rule="nonzero"
         id="path1483" />
      <path
         d="m 150.744,108.13 c 0,13.141 0.332,24.1 -6.31,35.77 -5.361,9.489 -13.853,15.324 -23.341,15.324 -12.952,0 -20.495,-9.868 -20.495,-24.432 0,-28.75 25.76,-33.968 50.146,-33.968 z m 34.015,82.216 c -2.23,1.992 -5.456,2.135 -7.97,0.806 -11.196,-9.298 -13.189,-13.615 -19.356,-22.487 -18.502,18.882 -31.596,24.527 -55.601,24.527 -28.37,0 -50.478,-17.506 -50.478,-52.565 0,-27.373 14.85,-46.018 35.96,-55.126 18.313,-8.066 43.884,-9.489 63.43,-11.718 v -4.365 c 0,-8.018 0.616,-17.506 -4.08,-24.432 -4.128,-6.215 -12.003,-8.777 -18.93,-8.777 -12.856,0 -24.337,6.594 -27.136,20.257 -0.57,3.037 -2.799,6.026 -5.835,6.168 L 62.028,59.124 C 59.277,58.506 56.241,56.277 57,52.054 64.543,12.394 100.36,0.438 132.43,0.438 c 16.415,0 37.858,4.365 50.81,16.795 16.415,15.323 14.849,35.77 14.849,58.02 v 52.565 c 0,15.798 6.547,22.724 12.714,31.264 2.182,3.036 2.657,6.69 -0.095,8.966 -6.879,5.74 -19.119,16.415 -25.855,22.393 l -0.095,-0.095"
         fill="#000000"
         id="path1485" />
      <path
         d="m 221.503,210.324 c -105.235,50.083 -170.545,8.18 -212.352,-17.271 -2.587,-1.604 -6.984,0.375 -3.169,4.757 13.928,16.888 59.573,57.593 119.153,57.593 59.621,0 95.09,-32.532 99.527,-38.207 4.407,-5.627 1.294,-8.731 -3.16,-6.872 z m 29.555,-16.322 c -2.826,-3.68 -17.184,-4.366 -26.22,-3.256 -9.05,1.078 -22.634,6.609 -21.453,9.93 0.606,1.244 1.843,0.686 8.06,0.127 6.234,-0.622 23.698,-2.826 27.337,1.931 3.656,4.79 -5.57,27.608 -7.255,31.288 -1.628,3.68 0.622,4.629 3.68,2.178 3.016,-2.45 8.476,-8.795 12.14,-17.774 3.639,-9.028 5.858,-21.622 3.71,-24.424 z"
         fill="#ff9900"
         fill-rule="nonzero"
         id="path1487" />
      <path
         d="m 150.744,108.13 c 0,13.141 0.332,24.1 -6.31,35.77 -5.361,9.489 -13.853,15.324 -23.341,15.324 -12.952,0 -20.495,-9.868 -20.495,-24.432 0,-28.75 25.76,-33.968 50.146,-33.968 z m 34.015,82.216 c -2.23,1.992 -5.456,2.135 -7.97,0.806 -11.196,-9.298 -13.189,-13.615 -19.356,-22.487 -18.502,18.882 -31.596,24.527 -55.601,24.527 -28.37,0 -50.478,-17.506 -50.478,-52.565 0,-27.373 14.85,-46.018 35.96,-55.126 18.313,-8.066 43.884,-9.489 63.43,-11.718 v -4.365 c 0,-8.018 0.616,-17.506 -4.08,-24.432 -4.128,-6.215 -12.003,-8.777 -18.93,-8.777 -12.856,0 -24.337,6.594 -27.136,20.257 -0.57,3.037 -2.799,6.026 -5.835,6.168 L 62.028,59.124 C 59.277,58.506 56.241,56.277 57,52.054 64.543,12.394 100.36,0.438 132.43,0.438 c 16.415,0 37.858,4.365 50.81,16.795 16.415,15.323 14.849,35.77 14.849,58.02 v 52.565 c 0,15.798 6.547,22.724 12.714,31.264 2.182,3.036 2.657,6.69 -0.095,8.966 -6.879,5.74 -19.119,16.415 -25.855,22.393 l -0.095,-0.095"
         fill="#000000"
         id="path1489" />
    </g>
    <path
       d="m 374.95373,58.083284 c -0.58006,0.45005 -10.82108,6.22062 -10.82108,19.0519 0,14.84149 13.0313,20.092006 13.42134,20.222026 -0.06,0.32003 -2.0702,7.19071 -6.87068,14.1914 -4.28043,6.16062 -8.75088,12.31124 -15.55156,12.31124 -6.80068,0 -8.55086,-3.9504 -16.40164,-3.9504 -7.65077,0 -10.37104,4.08041 -16.59166,4.08041 -6.22063,0 -10.56106,-5.70057 -15.55156,-12.70127 -5.78057,-8.22082 -10.45104,-20.992086 -10.45104,-33.113296 0,-19.44195 12.64126,-29.75298 25.0825,-29.75298 6.61067,0 12.12122,4.34044 16.27164,4.34044 3.95039,0 10.11101,-4.60046 17.63176,-4.60046 2.85028,0 13.09131,0.26002 19.83198,9.92099 z m -23.40234,-18.15182 c 3.11031,-3.69036 5.31053,-8.81088 5.31053,-13.93139 0,-0.71007 -0.06,-1.43014 -0.19002,-2.0102 -5.0605,0.19002 -11.0811,3.37034 -14.71147,7.58076 -2.85028,3.24032 -5.51055,8.36083 -5.51055,13.55135 0,0.78008 0.13001,1.56016 0.19002,1.81018 0.32003,0.06 0.84009,0.13002 1.36014,0.13002 4.54045,0 10.25102,-3.04031 13.55135,-7.13072 z"
       id="path1504"
       style="stroke-width:0.10001" />
    <g
       transform="matrix(4.1666667,0,0,4.1666667,159.78086,-139.50597)"
       id="g1520">
      <path
         fill="#4285f4"
         d="m -3.264,51.509 c 0,-0.79 -0.07,-1.54 -0.19,-2.27 h -11.3 v 4.51 h 6.47 c -0.29,1.48 -1.14,2.73 -2.4,3.58 v 3 h 3.86 c 2.26,-2.09 3.56,-5.17 3.56,-8.82 z"
         id="path1512" />
      <path
         fill="#34a853"
         d="m -14.754,63.239 c 3.24,0 5.95,-1.08 7.93,-2.91 l -3.86,-3 c -1.08,0.72 -2.45,1.16 -4.07,1.16 -3.13,0 -5.78,-2.11 -6.73,-4.96 h -3.98 v 3.09 c 1.97,3.92 6.02,6.62 10.71,6.62 z"
         id="path1514" />
      <path
         fill="#fbbc05"
         d="m -21.484,53.529 c -0.25,-0.72 -0.38,-1.49 -0.38,-2.29 0,-0.8 0.14,-1.57 0.38,-2.29 v -3.09 h -3.98 c -0.82,1.62 -1.29,3.44 -1.29,5.38 0,1.94 0.47,3.76 1.29,5.38 z"
         id="path1516" />
      <path
         fill="#ea4335"
         d="m -14.754,43.989 c 1.77,0 3.35,0.61 4.6,1.8 l 3.42,-3.42 c -2.07,-1.94 -4.78,-3.13 -8.02,-3.13 -4.69,0 -8.74,2.7 -10.71,6.62 l 3.98,3.09 c 0.95,-2.85 3.6,-4.96 6.73,-4.96 z"
         id="path1518" />
    </g>
    <g
       id="g1637"
       transform="matrix(4.7619048,0,0,4.7619048,576.2648,19.227969)">
      <path
         fill="#f35325"
         d="M 1,1 H 11 V 11 H 1 Z"
         id="path1618" />
      <path
         fill="#81bc06"
         d="M 12,1 H 22 V 11 H 12 Z"
         id="path1620" />
      <path
         fill="#05a6f0"
         d="M 1,12 H 11 V 22 H 1 Z"
         id="path1622" />
      <path
         fill="#ffba08"
         d="M 12,12 H 22 V 22 H 12 Z"
         id="path1624" />
    </g>
  </g>
</svg>
